<?xml version="1.0" encoding="UTF-8"?>
<svg width="146px" height="26px" viewBox="0 0 146 26" version="1.1" xmlns="http://www.w3.org/2000/svg" xmlns:xlink="http://www.w3.org/1999/xlink">
    <!-- Generator: Sketch 40.3 (33839) - http://www.bohemiancoding.com/sketch -->
    <title>PINRO. Copy</title>
    <desc>Created with Sketch.</desc>
    <defs></defs>
    <g id="Page-1" stroke="none" stroke-width="1" fill="none" fill-rule="evenodd">
        <g id="02.-Sign-in" transform="translate(-115.000000, -124.000000)" fill="#0A0A0B">
            <path d="M133.690834,126.525308 C135.492941,128.066583 136.393981,130.259904 136.393981,133.105335 C136.393981,136.093038 135.492941,138.413808 133.690834,140.067715 C131.888728,141.721622 129.363445,142.548564 126.114911,142.548564 L121.491108,142.548564 L121.491108,149.715458 L115,149.715458 L115,124.213406 L126.114911,124.213406 C129.363445,124.213406 131.888728,124.984032 133.690834,126.525308 L133.690834,126.525308 Z M121.491108,137.444596 L125.794802,137.444596 C127.229373,137.444596 128.331961,137.091887 129.102599,136.386457 C129.873237,135.681027 130.25855,134.658465 130.25855,133.318741 C130.25855,132.002729 129.870273,131.006843 129.093707,130.331053 C128.317142,129.655263 127.217517,129.317373 125.794802,129.317373 L121.491108,129.317373 L121.491108,137.444596 Z M143.932202,149.715458 L143.932202,124.213406 L150.42331,124.213406 L150.42331,149.715458 L143.932202,149.715458 Z M177.50599,149.715458 L165.768644,134.012312 L165.768644,149.715458 L159.686565,149.715458 L159.686565,124.213406 L165.412967,124.213406 L177.168097,139.95212 L177.168097,124.213406 L183.214609,124.213406 L183.214609,149.715458 L177.50599,149.715458 Z M204.072939,142.548564 L203.877316,142.548564 L198.968972,142.548564 L198.968972,149.715458 L192.477864,149.715458 L192.477864,124.213406 L203.877316,124.213406 C207.256266,124.213406 209.867503,124.984032 211.711106,126.525308 C213.554708,128.066583 214.476496,130.259904 214.476496,133.105335 C214.476496,135.049713 214.082291,136.712487 213.293869,138.093707 C212.505447,139.474927 211.3584,140.544912 209.852693,141.303694 L215.205634,149.715458 L207.860901,149.715458 L204.072939,142.548564 Z M203.877316,137.444596 C205.288176,137.444596 206.381873,137.091887 207.158438,136.386457 C207.935004,135.681027 208.323281,134.658465 208.323281,133.318741 C208.323281,132.002729 207.935004,131.006843 207.158438,130.331053 C206.381873,129.655263 205.288176,129.317373 203.877316,129.317373 L198.968972,129.317373 L198.968972,137.444596 L203.877316,137.444596 Z M242.154935,125.698358 C244.259369,126.830603 245.910287,128.377783 247.10774,130.339945 C248.305192,132.302107 248.903909,134.498392 248.903909,136.928865 C248.903909,139.383049 248.305192,141.606009 247.10774,143.597811 C245.910287,145.589613 244.259369,147.154577 242.154935,148.29275 C240.050502,149.430922 237.700092,150 235.103636,150 C232.530891,150 230.195302,149.430922 228.096796,148.29275 C225.99829,147.154577 224.347372,145.589613 223.143991,143.597811 C221.940611,141.606009 221.33893,139.383049 221.33893,136.928865 C221.33893,134.47468 221.940611,132.26654 223.143991,130.304378 C224.347372,128.342215 225.992362,126.800963 228.079012,125.680575 C230.165662,124.560186 232.50718,124 235.103636,124 C237.700092,124 240.050502,124.566114 242.154935,125.698358 L242.154935,125.698358 Z M231.591324,130.411081 C230.482791,131.069087 229.602499,131.97309 228.950421,133.123119 C228.298343,134.273148 227.972309,135.553573 227.972309,136.964432 C227.972309,138.375292 228.298343,139.664609 228.950421,140.832421 C229.602499,142.000234 230.482791,142.916093 231.591324,143.580027 C232.699857,144.243961 233.894327,144.575923 235.174771,144.575923 C236.467071,144.575923 237.65265,144.243961 238.731543,143.580027 C239.810435,142.916093 240.667016,142.000234 241.30131,140.832421 C241.935604,139.664609 242.252747,138.375292 242.252747,136.964432 C242.252747,135.553573 241.935604,134.273148 241.30131,133.123119 C240.667016,131.97309 239.810435,131.069087 238.731543,130.411081 C237.65265,129.753075 236.467071,129.424077 235.174771,129.424077 C233.894327,129.424077 232.699857,129.753075 231.591324,130.411081 L231.591324,130.411081 Z M259.732144,144.762654 C260.30123,145.325812 260.585769,146.051979 260.585769,146.941176 C260.585769,147.84223 260.30123,148.577289 259.732144,149.146375 C259.163058,149.715461 258.427999,150 257.526946,150 C256.625892,150 255.896761,149.715461 255.339531,149.146375 C254.782301,148.577289 254.50369,147.84223 254.50369,146.941176 C254.50369,146.040123 254.782301,145.310992 255.339531,144.753762 C255.896761,144.196532 256.625892,143.917921 257.526946,143.917921 C258.427999,143.917921 259.163058,144.199496 259.732144,144.762654 L259.732144,144.762654 Z" id="PINRO.-Copy"></path>
        </g>
    </g>
</svg>